<svg xmlns="http://www.w3.org/2000/svg"  viewBox="0 0 64 64" width="96px" height="96px"><linearGradient id="SVGID_1_" x1="34.5" x2="34.5" y1="7.596" y2="18.831" gradientUnits="userSpaceOnUse"><stop offset="0" stop-color="#6dc7ff"/><stop offset="1" stop-color="#e6abff"/></linearGradient><circle cx="34.5" cy="13.5" r="6.5" fill="url(#SVGID_1_)"/><linearGradient id="SVGID_2_" x1="33.639" x2="33.639" y1="-.489" y2="64.589" gradientUnits="userSpaceOnUse"><stop offset="0" stop-color="#1a6dff"/><stop offset="1" stop-color="#c822ff"/></linearGradient><path fill="url(#SVGID_2_)" d="M46.3,38c-0.1-0.9-0.6-1.7-1.4-2.2l-6.1-4.4l-1.3-3.3C36.7,26,36.3,25,36,24.4c0,0-0.5-0.9-1-1.4l-2.8-2.4	c0.7,0.2,1.5,0.3,2.2,0.3c4.1,0,7.5-3.4,7.5-7.5S38.6,6,34.5,6S27,9.4,27,13.5c0,1.2,0.3,2.3,0.8,3.3L23,12.6V0h-2v64h2v-4.4	c0,0,0,0,0.1,0l8.1-7.6c0.1-0.1,0.4-0.5,0.5-0.6c0.8-1.2,0.8-2.8,0-3.9l-7.2-9.6l6.7-7.7l1.7,4.5c0.2,0.4,0.4,0.8,0.7,1.1	c0.2,0.2,0.4,0.4,0.6,0.6l6.8,4.9c1.5,1.1,3.6,0.8,4.7-0.7C46.2,39.8,46.4,38.9,46.3,38z M34.5,8c3,0,5.5,2.5,5.5,5.5	S37.5,19,34.5,19S29,16.5,29,13.5S31.5,8,34.5,8z M30,48.6c0.3,0.5,0.4,1.1,0,1.6c0,0.1-0.2,0.2-0.2,0.3L23,56.9V39.3L30,48.6z M44,39.4c-0.4,0.6-1.3,0.7-1.9,0.3l-6.8-4.9c-0.1-0.1-0.2-0.1-0.2-0.2c0,0,0-0.1-0.1-0.1c-0.1-0.1-0.2-0.3-0.3-0.5l-2.3-6	c-0.1-0.3-0.4-0.6-0.8-0.6c-0.3-0.1-0.7,0.1-0.9,0.3L23,36.4V15.3l10.4,9l0.2,0.2c0.3,0.3,0.6,0.6,0.8,0.9c0.3,0.8,2.7,7.1,2.7,7.1	c0.1,0.2,0.2,0.3,0.3,0.5l6.4,4.6c0.3,0.2,0.5,0.5,0.5,0.9C44.3,38.7,44.2,39.1,44,39.4z"/></svg>